<?xml version="1.0" encoding="UTF-8"?>
<svg xmlns="http://www.w3.org/2000/svg" xmlns:xlink="http://www.w3.org/1999/xlink" width="18px" height="20px" viewBox="0 0 18 20" version="1.1">
<g id="surface1">
<path style=" stroke:none;fill-rule:nonzero;fill:#fe3e57;fill-opacity:1;" d="M 7.574219 3.75 L 3.375 3.75 L 3.375 10.679688 L 0.0078125 7.910156 C 0.0625 7.203125 0.390625 6.546875 0.910156 6.121094 L 1.6875 5.480469 L 1.6875 3.75 C 1.6875 2.714844 2.445312 1.875 3.375 1.875 L 6.066406 1.875 L 7.820312 0.433594 C 8.164062 0.152344 8.574219 0 9 0 C 9.425781 0 9.835938 0.152344 10.179688 0.429688 L 11.933594 1.875 L 14.625 1.875 C 15.554688 1.875 16.3125 2.714844 16.3125 3.75 L 16.3125 5.480469 L 17.089844 6.121094 C 17.609375 6.546875 17.9375 7.203125 17.992188 7.910156 L 14.625 10.679688 L 14.625 3.75 Z M 0 17.5 L 0 9.457031 L 7.648438 15.753906 C 8.039062 16.074219 8.515625 16.25 9 16.25 C 9.484375 16.25 9.960938 16.078125 10.351562 15.753906 L 18 9.457031 L 18 17.5 C 18 18.878906 16.992188 20 15.75 20 L 2.25 20 C 1.007812 20 0 18.878906 0 17.5 Z M 6.1875 6.25 L 11.8125 6.25 C 12.121094 6.25 12.375 6.53125 12.375 6.875 C 12.375 7.21875 12.121094 7.5 11.8125 7.5 L 6.1875 7.5 C 5.878906 7.5 5.625 7.21875 5.625 6.875 C 5.625 6.53125 5.878906 6.25 6.1875 6.25 Z M 6.1875 8.75 L 11.8125 8.75 C 12.121094 8.75 12.375 9.03125 12.375 9.375 C 12.375 9.71875 12.121094 10 11.8125 10 L 6.1875 10 C 5.878906 10 5.625 9.71875 5.625 9.375 C 5.625 9.03125 5.878906 8.75 6.1875 8.75 Z M 6.1875 8.75 "/>
</g>
</svg>
