<svg xmlns="http://www.w3.org/2000/svg" xmlns:xlink="http://www.w3.org/1999/xlink" width="15px" height="15px" viewBox="0 0 15 15" version="1.1">
<g id="surface1">
<path style=" stroke:none;fill-rule:nonzero;fill:rgb(0%,0%,0%);fill-opacity:1;" d="M 7.503906 4.132812 C 5.375 4.132812 3.65625 5.632812 3.65625 7.496094 C 3.65625 9.359375 5.375 10.863281 7.503906 10.863281 C 9.632812 10.863281 11.351562 9.359375 11.351562 7.496094 C 11.351562 5.632812 9.632812 4.132812 7.503906 4.132812 Z M 7.503906 9.6875 C 6.128906 9.6875 5.003906 8.703125 5.003906 7.496094 C 5.003906 6.289062 6.125 5.308594 7.503906 5.308594 C 8.882812 5.308594 10.003906 6.289062 10.003906 7.496094 C 10.003906 8.703125 8.878906 9.6875 7.503906 9.6875 Z M 12.40625 3.992188 C 12.40625 4.429688 12.003906 4.777344 11.507812 4.777344 C 11.007812 4.777344 10.609375 4.425781 10.609375 3.992188 C 10.609375 3.558594 11.011719 3.207031 11.507812 3.207031 C 12.003906 3.207031 12.40625 3.558594 12.40625 3.992188 Z M 14.953125 4.789062 C 14.894531 3.738281 14.621094 2.804688 13.742188 2.039062 C 12.863281 1.269531 11.800781 1.03125 10.597656 0.976562 C 9.359375 0.917969 5.644531 0.917969 4.40625 0.976562 C 3.207031 1.027344 2.144531 1.269531 1.261719 2.035156 C 0.382812 2.804688 0.109375 3.734375 0.0507812 4.789062 C -0.0195312 5.871094 -0.0195312 9.121094 0.0507812 10.203125 C 0.105469 11.257812 0.382812 12.1875 1.261719 12.957031 C 2.144531 13.722656 3.203125 13.960938 4.40625 14.015625 C 5.644531 14.078125 9.359375 14.078125 10.597656 14.015625 C 11.800781 13.964844 12.863281 13.726562 13.742188 12.957031 C 14.617188 12.1875 14.894531 11.257812 14.953125 10.203125 C 15.023438 9.121094 15.023438 5.875 14.953125 4.789062 Z M 13.351562 11.367188 C 13.089844 11.941406 12.585938 12.382812 11.925781 12.617188 C 10.9375 12.957031 8.59375 12.878906 7.503906 12.878906 C 6.410156 12.878906 4.066406 12.957031 3.082031 12.617188 C 2.425781 12.386719 1.917969 11.945312 1.652344 11.367188 C 1.261719 10.503906 1.351562 8.453125 1.351562 7.496094 C 1.351562 6.542969 1.265625 4.488281 1.652344 3.628906 C 1.914062 3.054688 2.421875 2.609375 3.082031 2.378906 C 4.066406 2.035156 6.410156 2.117188 7.503906 2.117188 C 8.59375 2.117188 10.941406 2.039062 11.925781 2.378906 C 12.582031 2.609375 13.089844 3.050781 13.351562 3.628906 C 13.746094 4.492188 13.652344 6.542969 13.652344 7.496094 C 13.652344 8.453125 13.746094 10.507812 13.351562 11.367188 Z M 13.351562 11.367188 "/>
</g>
</svg>
