<?xml version="1.0" encoding="UTF-8"?>
<svg xmlns="http://www.w3.org/2000/svg" xmlns:xlink="http://www.w3.org/1999/xlink" width="14px" height="20px" viewBox="0 0 14 20" version="1.1">
<g id="surface1">
<path style=" stroke:none;fill-rule:nonzero;fill:#fe3e57;fill-opacity:1;" d="M 7.863281 19.5 C 9.734375 16.992188 14 10.914062 14 7.5 C 14 3.359375 10.863281 0 7 0 C 3.136719 0 0 3.359375 0 7.5 C 0 10.914062 4.265625 16.992188 6.136719 19.5 C 6.585938 20.097656 7.414062 20.097656 7.863281 19.5 Z M 7 5 C 8.289062 5 9.332031 6.121094 9.332031 7.5 C 9.332031 8.878906 8.289062 10 7 10 C 5.710938 10 4.667969 8.878906 4.667969 7.5 C 4.667969 6.121094 5.710938 5 7 5 Z M 7 5 "/>
</g>
</svg>
