<?xml version="1.0" encoding="UTF-8"?>
<svg xmlns="http://www.w3.org/2000/svg" xmlns:xlink="http://www.w3.org/1999/xlink" width="20px" height="20px" viewBox="0 0 20 20" version="1.1">
<g id="surface1">
<path style=" stroke:none;fill-rule:nonzero;fill:#fe3e57;fill-opacity:1;" d="M 6.441406 0.960938 C 6.140625 0.234375 5.347656 -0.152344 4.589844 0.0546875 L 1.152344 0.992188 C 0.472656 1.179688 0 1.796875 0 2.5 C 0 12.164062 7.835938 20 17.5 20 C 18.203125 20 18.820312 19.527344 19.007812 18.847656 L 19.945312 15.410156 C 20.152344 14.652344 19.765625 13.859375 19.039062 13.558594 L 15.289062 11.996094 C 14.652344 11.730469 13.914062 11.914062 13.480469 12.449219 L 11.902344 14.375 C 9.152344 13.074219 6.925781 10.847656 5.625 8.097656 L 7.550781 6.523438 C 8.085938 6.085938 8.269531 5.351562 8.003906 4.714844 L 6.441406 0.964844 Z M 6.441406 0.960938 "/>
</g>
</svg>
